# Alias OBJ Model File
# Exported from SketchUp, (c) 2000-2012 Trimble Navigation Limited
# File units = meters

mtllib trajectory_reshaping_mockup.mtl

g Mesh1 groundplane1 Model

usemtl Polished_Concrete_Old
v 311 50 -0.1
vt -351.05 109.361
vn 0 0 -1
v -10 -50 -0.1
vt 0 0
v -10 50 -0.1
vt 0 109.361
f 1/1/1 2/2/1 3/3/1

v 311 -50 -0.1
vt -351.05 0
f 2/2/1 1/1/1 4/4/1

usemtl BackColor
vt 0 3937.01
vn -0 -0 1
vt -12637.8 3937.01
f 3/5/2 2/2/2 1/6/2

usemtl Polished_Concrete_Old
vn -1 0 0
v -10 50 0
vt -109.361 0.109361
vt -109.361 0
f 2/2/3 5/7/3 3/8/3

v -10 -50 0
vt 0 0.109361
f 5/7/3 2/2/3 6/9/3

usemtl BackColor
vt 0 3.93701
vn 1 -0 -0
vt -3937.01 3.93701
f 6/10/4 2/2/4 5/11/4

usemtl Polished_Concrete_Old
vn 0 -1 0
v 311 -50 0
vt 351.05 0.109361
f 2/2/5 7/12/5 6/9/5

vt 351.05 0
f 7/12/5 2/2/5 4/13/5

usemtl BackColor
vt 12637.8 0
vn -0 1 -0
vt 12637.8 3.93701
f 4/14/6 2/2/6 7/15/6

vt -12637.8 0
f 4/16/2 1/6/2 2/2/2

usemtl Polished_Concrete_Old
vt 109.361 0
vn 1 0 0
f 1/17/7 7/9/7 4/2/7

v 311 50 0
vt 109.361 0.109361
f 7/9/7 1/17/7 8/18/7

usemtl BackColor
vn -1 -0 -0
vt 3937.01 0
f 4/2/8 7/10/8 1/19/8

vt 3937.01 3.93701
f 8/20/8 1/19/8 7/10/8

usemtl Polished_Concrete_Old
vn 0 1 0
vt -351.05 0.109361
f 1/4/9 5/9/9 8/21/9

f 5/9/9 1/4/9 3/2/9

usemtl BackColor
vn -0 -1 -0
f 3/2/10 1/16/10 5/10/10

vt -12637.8 3.93701
f 8/22/10 5/10/10 1/16/10

usemtl M_2Bfo4
vt 0 12.5
vn 0 0 1
vt 40.125 0
vt 40.125 12.5
f 5/23/11 7/24/11 8/25/11

f 7/24/11 5/23/11 6/2/11

usemtl BackColor
vn -0 -0 -1
f 6/2/12 5/5/12 7/14/12

vt 12637.8 3937.01
f 8/26/12 7/14/12 5/5/12

f 6/10/6 7/15/6 2/2/6

vt -3937.01 0
f 3/27/4 5/11/4 2/2/4

g Mesh2 groundplane1 Model

l 2 4

l 3 2

l 1 3

l 4 1

l 4 7

l 6 7

l 2 6

l 5 6

l 3 5

l 8 5

l 1 8

l 7 8

g Mesh3 wall1 Model

usemtl Brick_Antique_01
v 311.1 50.1 -0.1
vt 68.0152 0
v 311.1 -50.1 9.9
vt 0 10.6406
v 311.1 -50.1 -0.1
f 9/28/7 10/29/7 11/2/7

v 311.1 50.1 9.9
vt 68.0152 10.6406
f 10/29/7 9/28/7 12/30/7

f 11/2/8 10/29/8 9/28/8

vt 218.029 10.6406
v -10.1 -50.1 -0.1
vt 218.029 0
f 10/31/5 13/2/5 11/32/5

v -10.1 -50.1 9.9
f 13/2/5 10/31/5 14/29/5

f 11/32/6 13/2/6 10/31/6

vt -0.0678794 0.106406
vt -218.029 0
f 13/2/1 2/33/1 11/34/1

v -10.1 50.1 -0.1
vt -9.80059e-16 106.618
f 2/33/1 13/2/1 15/35/1

f 11/34/2 2/33/2 13/2/2

v 311 -50 -0.1
vt -217.961 0.106406
f 11/34/1 2/33/1 16/36/1

f 16/36/2 2/33/2 11/34/2

v -10 -50 9.9
vt -0.0678794 10.6406
vt -217.961 0
vt -0.0678794 0
f 17/37/9 16/38/9 2/39/9

v 311 -50 9.9
vt -217.961 10.6406
f 16/38/9 17/37/9 18/40/9

f 2/39/10 16/38/10 17/37/10

f 18/40/10 17/37/10 16/38/10

vt 0.0678794 0.106406
vt 217.961 0.106406
f 17/41/11 10/32/11 18/42/11

f 17/41/11 14/2/11 10/32/11

v -10.1 50.1 9.9
vt 9.80059e-16 106.618
f 14/2/11 17/41/11 19/43/11

f 19/43/12 17/41/12 14/2/12

v -10 50 9.9
vt 0.0678794 106.512
f 20/44/11 19/43/11 17/41/11

vt 218.029 106.618
f 19/43/11 20/44/11 12/45/11

f 12/45/12 20/44/12 19/43/12

v 311 50 9.9
vt 217.961 106.512
f 12/45/11 20/44/11 21/46/11

f 21/46/12 20/44/12 12/45/12

v -10 50 -0.1
vt 0.0678794 0
vt 217.961 10.6406
vt 0.0678794 10.6406
f 22/47/5 21/48/5 20/49/5

v 311 50 -0.1
vt 217.961 0
f 21/48/5 22/47/5 23/50/5

f 23/50/6 22/47/6 21/48/6

vt -0.0678794 106.512
vt -218.029 106.618
vt -217.961 106.512
f 22/51/1 9/52/1 23/53/1

f 9/52/1 22/51/1 15/35/1

f 15/35/2 22/51/2 9/52/2

f 2/33/1 15/35/1 22/51/1

f 15/35/2 13/2/2 2/33/2

vn -1 1.44094e-17 0
vt -68.0152 10.6406
vt -68.0152 0
f 13/2/13 19/54/13 15/55/13

f 19/54/13 13/2/13 14/29/13

vn 1 -1.44094e-17 -0
f 14/29/14 13/2/14 19/54/14

f 14/29/6 10/31/6 13/2/6

f 10/32/12 14/2/12 17/41/12

f 18/42/12 10/32/12 17/41/12

f 18/42/11 10/32/11 21/46/11

f 21/46/12 10/32/12 18/42/12

f 12/45/11 21/46/11 10/32/11

f 10/32/12 21/46/12 12/45/12

f 12/30/8 9/28/8 10/29/8

vt -9.80059e-16 10.6406
vt -218.029 10.6406
f 9/34/9 19/56/9 12/57/9

vt -9.80059e-16 0
f 19/56/9 9/34/9 15/58/9

f 15/58/10 9/34/10 19/56/10

f 12/57/10 19/56/10 9/34/10

f 15/55/14 19/54/14 13/2/14

vt -67.9473 10.6406
f 21/59/3 16/39/3 18/37/3

vt -67.9473 0
f 16/39/3 21/59/3 23/60/3

f 18/37/4 16/39/4 21/59/4

f 23/60/4 21/59/4 16/39/4

f 23/53/1 9/52/1 16/36/1

f 23/53/2 9/52/2 22/51/2

f 16/36/2 9/52/2 23/53/2

f 11/34/1 16/36/1 9/52/1

f 9/52/2 16/36/2 11/34/2

f 22/51/2 15/35/2 2/33/2

vt 67.9473 0
f 22/61/7 17/49/7 2/47/7

vt 67.9473 10.6406
f 17/49/7 22/61/7 20/62/7

f 2/47/8 17/49/8 22/61/8

f 20/62/8 22/61/8 17/49/8

f 20/49/6 21/48/6 22/47/6

f 17/41/12 19/43/12 20/44/12

g Mesh4 wall1 Model

l 20 21

l 17 20

l 18 17

l 16 18

l 16 2

l 23 16

l 22 23

l 2 22

l 2 17

l 22 20

l 23 21

l 21 18

g Mesh5 wall1 Model

l 11 10

l 9 11

l 9 12

l 15 9

l 15 19

l 13 15

l 13 14

l 11 13

l 10 14

l 12 10

l 19 12

l 14 19

